<?xml version="1.0" encoding="UTF-8"?>
<!DOCTYPE svg PUBLIC "-//W3C//DTD SVG 1.1//EN" "http://www.w3.org/Graphics/SVG/1.1/DTD/svg11.dtd">
<!-- Creator: CorelDRAW 2018 (64-Bit) -->
<svg xmlns="http://www.w3.org/2000/svg" xml:space="preserve" width="5.632in" height="5.032in" version="1.1" style="shape-rendering:geometricPrecision; text-rendering:geometricPrecision; image-rendering:optimizeQuality; fill-rule:evenodd; clip-rule:evenodd"
viewBox="0 0 5632 5032"
 xmlns:xlink="http://www.w3.org/1999/xlink">
 <defs>
  <style type="text/css">
   <![CDATA[
    .fil1 {fill:#E1298D}
    .fil0 {fill:#89C54B}
   ]]>
  </style>
 </defs>
 <g id="Layer_x0020_1">
  <metadata id="CorelCorpID_0Corel-Layer"/>
  <path class="fil0" d="M18622.25 4626.17c5,7.7 1.99,-4.8 8.64,19.53l166.05 1501.01c10.66,95.25 54.22,449.5 54.32,514.44 -23.83,-31.74 -303.09,-710.24 -304.13,-746.78l42.48 -714.92c12.27,-184.64 29.65,-387.53 32.64,-573.29zm558.83 1167.62l226.08 -899.44c21.19,88.07 37.77,174.46 56.48,262.85 22.37,105.66 28.44,88.98 -52.22,225 -41.03,69.19 -202.12,380.81 -230.35,411.59zm-1266.58 -619.97c55.82,23.94 129.68,79.31 182.93,113.06 55.38,35.1 137.5,79.89 182.09,118.9l-4.12 500.2 -360.9 -732.16zm-24.12 -57.7l11.58 -255.77c49.44,19.75 96.56,42.69 142.46,62.76 80.96,35.39 63.98,29.98 97.87,117.95 38.21,99.19 88.36,212.11 117.96,311.38 -57.1,-27.47 -128.15,-79.65 -184.59,-115.48 -50.85,-32.28 -144.85,-84.1 -185.28,-120.84zm1877.46 -527.5c4.47,13.41 42.28,79.63 53.75,102.6 18.46,36.96 35.91,71.94 55.09,110.24 84.93,169.67 86.88,136.57 49.61,232.97 -31.17,80.62 -60.31,161.26 -90.7,240.27 -15.9,41.34 -30.07,80.29 -44.86,120.51l-35.41 93.77c-6.52,14.46 1.38,-1.07 -8.22,14.98l-7.43 9.34 28.18 -924.69zm-1623.61 369.71l205.27 41.35 13.03 72.3c20.06,116.86 124.66,672.04 127.14,726.32 -55.65,-102.45 -326.48,-750.14 -345.43,-839.97zm983.23 917.78c-36.47,-74.57 -69.58,-197.28 -96.8,-278.87 -56.55,-169.52 -65.14,-127.57 29.9,-256.75 108.09,-146.93 207.87,-292.85 312.72,-438.34l-245.82 973.97zm-115.1 -524.83l353.69 -1114.25c10.63,-16.83 -0.82,-7.43 14.88,-13.56l14.44 569.21c1.49,37.85 -62.82,114.97 -87.57,148.07 -51.8,69.25 -270.52,392.69 -295.43,410.53zm697.98 178.89l-117.61 -329.57c-15.77,-45.68 -36.27,-70.19 -19.65,-116.03 24.15,-66.57 142.5,-420.89 160.6,-450.15l-23.34 895.75zm-1053.67 -948.67c14.78,20.81 25.76,63.2 34.59,90.23 9.9,30.28 20.51,60.58 30.56,91.46 75.84,233.07 400.64,1168.19 430.66,1297.38 -97.43,-60.8 -195.52,-138.39 -286.94,-204.54 -87.33,-63.2 -74.13,-26.3 -88.44,-156.81 -14.54,-132.67 -120.74,-1050.6 -120.43,-1117.72zm-745.57 246.8c27.71,-69.5 270.87,-474.24 290.69,-534.96l13.8 40.8c10.15,71.04 42.41,265.61 20.92,311.58 -26.13,55.89 -99.52,238.91 -127.38,274l-198.03 -91.41zm1594.52 361.43l-78.46 -362.93 245.26 -211.36c20.04,-16.7 18.15,-21.77 43.22,-33.51l-210.01 607.8zm-980.57 608.39c-13.76,-29.06 -114.33,-620.46 -128.5,-702.12 -26.08,-150.38 -35.43,-113.14 64.65,-311.57l137.24 -279.08 -73.39 1292.78zm1417.07 -1674.68l102.16 937.39c-30.58,-34.28 -198.08,-385.08 -234.69,-458.24 -26.98,-53.93 -47.47,-61.96 -23.33,-117.43 29.16,-67 136.2,-339.06 155.86,-361.72zm-1788.21 806.29c15.44,-26.06 390.04,-410.25 405.59,-417.5l-212.21 435.38 -193.38 -17.88zm499.7 -464.52l165.02 115.1c75.86,55.75 53.15,7.42 71.78,206.7 8.2,87.72 47.72,462 44.46,517.13l-281.27 -838.93zm-737.17 18.78l-32.84 245.08 -68.81 -282.95 101.65 37.87zm2450.38 466.96c33.72,-70.72 84.39,-147.13 123.21,-215.1 49.19,-86.12 335.8,-584.39 371.72,-631.4l66.24 357.92c-45.76,26.08 -505.96,455.41 -561.17,488.58zm-2440.66 -205.4l-18.42 12.84 7.68 -14.37c2.67,-51.3 11.3,-107.25 17.36,-156.59 8.88,-72.26 -2.11,-93.06 43.51,-130.13l184.2 -151.79c-41.15,91.63 -223.91,395.02 -234.32,440.04zm-115.7 -334.7c15.58,-60.09 75.89,-264.61 101.22,-312.38 19.37,-36.52 87.33,-63.78 123.33,-85.48 38.97,-23.51 93.09,-57.35 132.75,-75.15 26.77,350.16 80.8,251.61 -56.27,367.35 -48.67,41.09 -88.72,74.73 -137.17,114.4 -45.59,37.32 -32.09,53.03 -163.86,-8.75zm1161.05 952.2l-67.44 -742.76 446.55 -449.02c-11.33,76.33 -291.76,937.35 -349.43,1117.27 -7.67,23.93 -13.84,53.87 -29.69,74.51zm1114.03 -541.86c10.92,-96.47 56.75,-245.92 80.65,-344.66 38.24,-157.93 230.15,-982.11 250.27,-1014.99l140.66 616.59c12.94,54.32 14.39,45.71 -13.3,85.97 -49.98,72.66 -423.04,623.07 -458.29,657.09zm-796.53 -1314.99c15.7,31.91 42.88,285.39 50.98,344.05 7.89,57.18 16.26,118.84 24.31,176.55 13.92,99.7 12.63,75.12 -42.48,130.18l-394.56 389.25 361.74 -1040.03zm1072.14 1386.91c9.31,-55.86 125.99,-403.22 153.33,-492.31 95.91,-312.54 22.06,-245.23 318.37,-317.07l-353.92 612.26c-34.87,60.9 -78.22,140.41 -117.78,197.13zm309.83 -1766.31c12.74,25.14 179.22,888.32 174.9,922.56l-245.69 59.63 70.78 -982.19zm-3155.18 1077.97l-131.21 -253.26 451.93 129.53c-26.09,18.06 -279.57,116.9 -320.72,123.73zm-128.72 -286.32c43.09,-38.16 98.61,-74.87 142.34,-109.3 30.24,-23.81 114.26,-96.76 143.91,-109.11 35.47,90.36 158.33,272.2 185.71,353.93l-471.96 -135.53zm1216.17 -50.96c-46.22,111.7 -109.14,238.19 -163.47,349.22 -29.13,59.52 -145.39,319.45 -168.37,344.58l-73.31 -636.89 405.16 -56.91zm-248.64 -240.24c12.98,6.09 3.03,0.95 14.18,8.1l242.63 199.07 -403.67 56.54 146.87 -263.7zm-452.82 428.02c-33.03,-38.49 -182.15,-327.87 -186.37,-343.85l427.71 201.7c-38.63,33.48 -186.35,113.38 -241.34,142.15zm-540.06 -515.19l280.62 137.69c-16.8,21.37 -253.22,205.33 -276.63,214.15l-3.98 -351.84zm965.3 65.67c-31.34,90.33 -121.2,197.05 -148.58,285.04 -50.95,-9.35 -166.08,-74.4 -218.56,-97.81l-204.83 -102.73 571.97 -84.5zm1665.24 -62.94c-4.63,135.68 -33.13,298.15 -48.88,437.58 -9.61,85.15 -85.01,285.19 -131.6,353.13l180.48 -790.7zm-2249.21 119.81c9.24,-21.52 58.37,-61.6 73.72,-76.35l235.95 -218.78c25.61,16.05 240.24,181.18 264.51,209.57l-574.18 85.56zm902.2 749.07c20.21,-36.18 49.41,-73.06 73.46,-110.23 24.53,-37.92 44.86,-67.48 72.85,-106.93 45.78,-64.51 417.52,-623.53 446.31,-648.66 -14.97,73.11 -61.78,189.94 -88.93,265.55 -47.78,133.11 -241.96,733.88 -269.63,772.48 -22.96,-9 -221.9,-154.11 -234.06,-172.21zm-1313.41 -790.86c-8.83,-8.98 -85.56,-110.73 -88.91,-124.39 -6.08,-24.77 17.48,-147.43 22.72,-181.49 37.57,100.04 69.2,187.39 66.2,305.88zm2720.32 1194.03c-12.06,-42.58 -64.97,-544.46 -74.83,-632.33 -13.86,-123.45 -27.48,-100.15 25.83,-178.03l371.45 -542.89c0.87,-0.95 3.54,-1.42 4.19,-4.04 0.66,-2.66 2.83,-2.74 4.93,-3.89l-331.57 1361.17zm-1876.79 42.25c42.25,-119.24 113.35,-251.68 168.44,-362.54 33.6,-67.61 280.15,-584.83 321.01,-635.6 19.69,-24.47 3.52,-19.56 20.01,-58.34l164.93 -362.04c-17.64,105.43 -177.98,715.61 -208.94,842.43 -31.48,128.95 -13.5,111.13 -84.28,181.67l-381.17 394.41zm1275.1 -95.09c71.94,-161.8 193.23,-485.22 266.79,-669.63 74.54,-186.89 204.9,-494.02 266.17,-665.27 -5.41,72.69 -142.28,641.52 -170.27,767.97 -9.26,41.85 -56.98,299.51 -82.17,328.15l-280.52 238.78zm-527.65 -1490.23l346.32 162.32c-11.33,37.48 -121.37,183.63 -148.73,226.84l-444.47 649.52c-11.07,12.46 0.12,2.65 -15.55,12.44l262.43 -1051.12zm482.7 866.76c0,-36.43 43.16,-80.73 63.27,-107.59l438.21 -589.93c24.15,-32.92 44.55,-67.46 72.53,-93.05 -5.67,32.78 -115.76,297.26 -137.4,351.78 -45.63,115 -90.92,227.84 -137.46,344.04l-208.66 524.58c-18.24,46.96 -46.27,131.87 -73.5,165.78l-16.98 -595.62zm-1166.56 -833.3l80.52 227.37c-33.26,-15.81 -91.72,-68.3 -121.94,-92.33 -41.63,-33.1 -75.42,-56.54 -113.62,-90.75l155.05 -44.3zm138.87 295.13c62.79,-36.19 453.78,-286.6 497.47,-302.29l-241.08 508.85 -256.39 -206.57zm-159.53 -988.23l14.92 627.89 0.19 7.19 -1.26 28.3 -161.8 44.33 147.95 -707.71zm-937.14 625.77c44.13,-18.06 271.31,-239.03 318.74,-264.23 39.13,21.44 338.49,297.98 426.13,363.58 -30.18,58.88 -272.2,253.46 -329.37,328.05 -83.34,-26.9 -201.31,-94.07 -287.02,-134.57 -68.46,-32.35 -50.97,-20.61 -82.97,-125.24 -13.5,-44.15 -42.71,-122.41 -45.51,-167.58zm2718.12 23.95c-9.28,22.15 -54.22,77.09 -71.5,99.55 -170.43,221.7 -332.03,456.03 -508.65,680.29l122.05 -616.14 458.1 -163.7zm-1017.74 -403.01l210.08 399.38c17.54,34.68 56.07,99.76 66.41,135.37l-328.33 -151.81 51.83 -382.93zm-426.78 332.52l-93.77 176.74c-25.24,44.08 -72.39,143.44 -99.19,173.89 -4.26,-5.58 1.91,6 -8.37,-13.3l-18.21 -46.51c-8.05,-22.46 -15.17,-42.04 -23.03,-63.27 -14.35,-38.73 -34.85,-84.17 -43.83,-124.65l286.4 -102.9zm2939.32 63.65c15.13,-35.03 33.69,-61.03 53.09,-92.8 8.91,-14.59 15.94,-27.62 26.27,-45.6 4.32,-7.52 7.23,-14.06 13.2,-22.61l18.36 -20.34c26.8,33.35 67.65,72.86 90.6,107.75l-201.52 73.6zm-913.03 740.72c-19.21,-7.07 -6.61,10.5 -17.43,-25.03l-105.66 -498.33c-27.35,-124.72 -32.83,-92.07 60.51,-224.83 42.62,-60.63 80.41,-126.04 128.88,-184.43l-66.31 932.62zm567.21 -307.57c90.19,117.61 75,93.98 45.95,163.27l-245.65 555.86c-13.2,-91.08 -61.35,-259.41 -61.43,-340.38l-5.07 -33.5c-18.96,-46.97 -181.15,-918.96 -185.61,-958.3 32.98,31.02 391.95,534.98 451.83,613.06zm-1175.43 304.75c1.17,-70.35 68.09,-607.8 82.11,-720.33 6.18,-49.59 4.99,-36.11 123.54,-77.51 51.85,-18.11 95.52,-34.5 147.5,-53.79 52.36,-19.44 97.2,-34.66 147.84,-53.08 46.51,-16.92 98.82,-38.88 147.45,-51.72l-569.57 844c-19.76,29.65 -55.73,91.02 -78.86,112.43zm-580.54 20.8c-26.4,-178.35 -48.58,-354.14 -73.48,-530.65 -9.26,-65.59 -34.85,-502.16 -28.18,-558.56 19.72,29.24 219.52,477.87 220.39,495.48 1.04,21.19 -107.62,566.49 -118.73,593.72zm1300.11 -1003.04c35.18,-16.81 174.48,-68.77 211.91,-73.92l418.71 935.88 -159.38 -214.49c-54.03,-74.73 -106.01,-141.63 -158.19,-215.48 -74.34,-105.22 -262.16,-349.8 -313.05,-431.98zm161.88 -481l40.33 375.67 -202.3 68.52 161.97 -444.19zm-2453.21 1009.96c31.6,-63.63 72.68,-137.78 109.17,-201.56 41.36,-72.3 64.9,-135.56 118.62,-190.19l322.6 -296.87c-7.03,92.8 -24.02,189.54 -36.23,281.2 -5.53,41.51 -1.31,100.1 -35.8,122.43l-478.35 284.98zm875.84 -182.31c-4.57,-24.19 -265.32,-486.98 -273.33,-531.87l246.77 22.62c9.65,29.03 31.56,474.95 26.56,509.24zm-1021.49 -368.11c107.52,-54.75 217.98,-111.15 324.67,-170.62 52.32,-29.16 105.18,-75.71 166.87,-57.75 50.58,14.73 153.63,35.73 190.5,55.09 -12.66,23.43 -125.74,119.26 -145.23,135.91 -49.11,41.96 -93.46,95.44 -143.16,136.94 -98.17,81.98 -40.85,51.57 -179.22,101.18 -64.05,22.96 -142.67,56.08 -208.2,74.13l-6.24 -274.88zm64.77 -68.65c14.87,-29.2 54.7,-61.55 78.28,-89.33l197.47 -219.36c10.96,-12.6 25.89,-35.63 42.16,-43.27l48.61 163.34c-49.97,16.71 -280.54,149.7 -366.52,188.62zm2930.07 708.08c-50.03,-90.68 -250.32,-552.94 -314.37,-691.5 -20.44,-44.22 -36.09,-234 -38.94,-296.12 22.09,26.24 170.48,462.91 180.84,492.17l172.47 495.45zm-1700.35 -282.13c-8.31,-65.71 33.56,-980.7 34.8,-1092.83 24.76,13.14 317.04,387.33 346.59,433.82l-381.38 659.01zm1848.38 580.99c-1.62,-1.57 -3.43,-3.71 -4.48,-5.1l-11.05 -15.6c-0.96,-1.76 -1.68,-3.54 -2.51,-5.33l-478.65 -1357.3c138.24,189.8 274.24,378.49 410.57,570.26 85.39,120.11 131.54,145.81 124.29,240.7 -2.91,38.04 -4.96,74.08 -7.62,113.63 -10.14,150.9 -25.07,308.48 -30.56,458.74zm54.19 -672.44c-22.47,-21.4 -48.48,-64.08 -68.06,-90.83 -53.69,-73.36 -442.45,-611.61 -448.54,-632.44l640.52 511.91c-4.94,18.98 -97.8,186.05 -123.93,211.35zm-3112.68 -411.11c15.33,-39.74 112.6,-199.57 142.04,-253.13l143.16 -240.52 3.12 156.53c0,44.25 -165.11,197.4 -214.86,259.78 -22.24,27.89 -42.64,55.71 -73.46,77.33zm-710.82 108.56c13.35,-21.77 108.56,-90.17 141.73,-116.75l363.75 -283.23c21.59,-17.55 47.65,-39.99 69.82,-52.44 -5.55,63.96 -156.61,795.6 -165.94,809.15 -45.3,-25.34 -301.11,-267.56 -360.39,-312.47 -19.45,-14.74 -31.56,-22.38 -48.97,-44.26zm2001.68 405.89c12.9,-5.27 119.81,-89.78 143.81,-107.39 48.76,-35.79 99.6,-72.03 148.88,-109.78 27,-20.69 46.76,-35.43 74.42,-55.07 108.44,-77 784.45,-587.42 816.47,-600.47 -11.94,62.12 -42.03,137.1 -60.96,198.74l-94.74 293.37c-15.55,29.49 -238.09,97.91 -276.27,112.31 -79.16,29.85 -723.71,266.63 -751.61,268.3zm-45.6 -5.79c6.95,-23.29 364.18,-642.44 373.33,-650.67 16.95,-15.26 730.43,-209.15 805.96,-222.99 -30.93,33.58 -535.77,398.29 -589.95,439.11 -91.88,69.22 -497.13,375.13 -589.34,434.55zm1968.63 -364.5c-39.48,-21.31 -470.49,-380.89 -570.55,-457.59 -26.06,-19.97 -57.44,-43.77 -76.51,-66.84l450.64 72.09 196.42 452.34zm-2038.52 355.95c-11.46,-33.55 -42.26,-88 -59.22,-127l-120.35 -267.88c-17.42,-37.7 -57.46,-97.63 -38.8,-139.42l259.28 -521.24 -40.91 1055.55zm-1269.67 -865.97c14.46,-24.83 142.66,-70.16 176.55,-83.67 55.48,-22.11 125.21,-58.2 177.72,-72.78 -18.2,46.08 -59.33,106.15 -84.39,152.04 -28.2,51.64 -56.86,98.98 -86.7,150.37 -58.08,100.02 -113.75,196.52 -174.56,297.43l-8.61 -443.39zm767.89 318.54c3.41,-17.57 217.33,-223.49 247.26,-253.43l248.02 -248.79 -250.46 526.53 -244.82 -24.32zm944.06 -131.74c-29.01,-28.03 -60.54,-74.54 -86.4,-107.56 -40.6,-51.86 -226.61,-288.23 -246.3,-326.9l1145.18 214.8 -812.48 219.67zm-2709.85 107.73c104.74,-107.22 268.57,-247.42 380.2,-360.03 24.58,-24.79 43.84,-37.73 67.98,-61.41l444.21 -416.59c24.18,23.97 91.44,150.02 112.48,185.76 15.2,25.82 52.09,69.48 50.09,97.24l-78.9 215.71c-18.89,41.3 -502.11,400.8 -578.89,463.52 -69.62,56.87 -92.91,33.43 -253.46,20.53 -81.83,-6.58 -191.45,-10.92 -269.74,-25.6l126.02 -119.13zm2434.27 -872.49l526.04 248.62c44.59,22.25 492.35,231.41 513.31,251.03 -76.9,-6.69 -462.24,-82.53 -568.91,-102.44l-492 -90.11c-22.39,-3.82 -45.63,-5.65 -65.28,-16.91l86.83 -290.19zm-219.84 104.47l89.94 191.18 -269.57 275.54c-83.25,78.23 -157.98,163.18 -237.16,244.45 -17.76,18.23 -16.26,19.89 -40.78,30.07l178.75 -667.43 278.81 -73.81zm-444.47 216.46c22.45,-18 36.7,-35.48 60.58,-54.31 18.72,-14.77 40.43,-38.25 62.93,-48.53l-177.2 671.71 -245.83 -65.86 -56.97 -191.13 356.48 -311.87zm66.37 -100.05c-35.89,27.66 -71.71,65.43 -106.93,95.41l-212.97 189.66c-29.43,29.02 -77.9,76.19 -108.06,93.79l0.27 -203.63 427.69 -175.22zm-664.91 92.29c27.35,-16.8 554.38,-106.26 610.58,-106.07 -92.94,41.57 -190.67,80.83 -285.57,120.69 -78.43,32.94 -68.47,42.81 -161.97,22.43 -44.67,-9.74 -129.4,-23.38 -163.05,-37.05zm2899.89 285.99c-100.15,-15.3 -193.19,-30.13 -294.83,-46.54 -166.41,-26.88 -154.08,-3.81 -237.85,-91.8l-329.71 -346.53 334.7 -5.46c44.96,0 230.28,195.18 272.51,239.73 74.37,78.44 182.74,164.13 255.19,250.6zm-424 -628.78l349.98 506.4 -306.06 -290.82c-31.59,-31.63 -64.61,-64.58 -96.93,-97.58l53.01 -118zm7.15 -97.2l-89.22 205.98 -323.56 0.56 412.79 -206.54zm-1868.44 -41.07c30.08,-19.3 297.41,-148.03 329.54,-153.38l88.67 394.35c-48.21,20.13 -211.48,62.48 -273.26,73.94l-144.96 -314.92zm1387.93 246.39l-122.32 -259.51 577.55 30.57 -455.22 228.94zm-2459.9 -217.12c79.53,-33.87 175.46,-63.69 257.25,-94.57 81.66,-30.83 173.04,-66.47 255.55,-91.47l-529.45 497.22 16.65 -311.19zm1590.14 354.63c-34.24,-69.03 -64.06,-116.24 -82.53,-199.18 -17.1,-76.76 -34.27,-153.58 -51.39,-228.81 -28.64,-125.89 -39.78,-106.16 2.4,-228.76 23.94,-69.6 51.61,-139.41 72.06,-210.82 9.98,23.84 65.31,813.18 59.46,867.57zm35.96 -0.93c-11.16,-40.15 -44.78,-662.98 -42.07,-725.72 1.25,1.74 2.54,4.11 3.27,5.54l13.76 40.3c3.07,13.98 6.76,30.31 10.57,47.04l60.69 276.72c21.62,97.61 33.82,91.27 4.31,191.19 -14.05,47.58 -43.51,122.16 -50.52,164.94zm-1326.5 -701.92l235.68 115.98c-25.11,21.52 -432.58,165.3 -492.63,183.34l256.95 -299.33zm-94.67 496.95c14.99,-20.99 25.85,-23.41 45.29,-42.15l220.76 -210.5c83.52,-84.22 94.33,-102.35 201.65,-143.45l374.41 -141.14c10.91,121.34 -43.79,283.4 4.3,389.36 41.5,91.43 102.81,201.07 134.1,292.31l-816.28 138.99 -164.22 -283.43zm2116.35 -219.24l-115.91 -247.28 673.56 272.26 -557.65 -24.98zm-2298.81 -289.07l236.09 5.44 -254.5 294.41 18.42 -299.86zm469.06 -424.94l69.42 528.45 -242.06 -114.05 172.65 -414.41zm131.14 522.47c26.13,-52.36 64.22,-106.35 95.21,-155.72l290.29 -453.61 39.49 446.2 -424.99 163.13zm2113.17 121.98c-100.5,-29.49 -236.66,-91.31 -339.91,-132.99 -56.52,-22.81 -113.8,-46 -169.83,-67.23 -47.24,-17.9 -43.89,-17.77 -63.65,-58.76 -12.84,-26.62 -27.73,-52.15 -35.96,-79l609.34 337.98zm219.47 81.36c-43.86,-13.13 -504.09,-276.28 -587.85,-322.38 -41.31,-22.74 -163.85,-84.84 -190.54,-110.74l724.47 102.52 53.91 330.61zm-1832.6 -33.57c11.65,-22.98 -1.25,-1.42 13.65,-21.3 0.24,-0.32 9.09,-10.61 10.35,-12.09l164.84 -186.82c45.6,-45.02 148.25,-173.92 188.92,-206.54 -7.06,32.54 -93.39,286.4 -104.36,297.98 -11.92,12.58 -244.44,121.27 -273.39,128.77zm1166.59 199.01c85.2,73.49 466.35,445.99 517.3,514.5l-1010.83 -481.07c-50.14,-23.51 -66.07,-19.42 -77.88,-72.75l-79.31 -359.24c-17.27,-78.71 -41.46,-164.48 -52.59,-245 25.43,13.23 128.54,118.01 160.25,144.34l543.08 499.21zm109.3 56.35c-46.01,-29.62 -231.28,-218.11 -286.96,-266.67 -34.05,-29.7 -64.38,-51.57 -95.45,-84.26 -89.76,-94.45 -293.69,-264.82 -371.99,-351.79 22.19,6.11 505.02,193.48 519.26,211.59l119.6 247.04c33.04,75.62 90.96,168.37 115.53,244.09zm-912.73 -719.17l-411.33 458.96c-9.63,-26.06 17.93,-266.73 23.04,-312.91l388.29 -146.05zm652.41 178.35c-78.78,-26.45 -158.97,-62.17 -235.42,-92.29 -42.25,-16.64 -196.61,-85.02 -225.99,-89.33 52.27,-4.6 221.93,27.55 286.42,36.88 87.71,12.69 105.52,1.83 125.97,38.75 16.49,29.77 37.48,75.93 49.02,105.99zm-501.26 -222.87c30.01,-10.88 175.88,-46.43 204.46,-38.6 21.69,5.94 140.4,77.11 156.22,92.07l-360.69 -53.47zm918.46 129.4c-37.7,1.08 -438.18,-50.28 -484.05,-73.79l-101.15 -57.76c-9.75,-7.1 -6.85,-4.77 -12.82,-13.12l598.02 144.67zm-1223.87 -703l194.94 568.7 -419.28 153.94 224.35 -722.65zm574.02 513.99c78.19,-23.84 178.65,-40.48 257.71,-58.46 112.71,-25.64 67.98,-19.5 220.13,55.55l403.16 215.74 -881 -212.82zm-1132.32 -354c55.91,18.61 169.89,72.3 221.26,100.32 -9.8,21.24 -31.75,52.52 -44.83,74.03 -16.16,26.58 -30.94,48.9 -47.37,74.78l-285.81 446.81 156.76 -695.95zm-258.06 175.48c35.52,-20.87 75.65,-52.53 111.48,-79.86 24.22,-18.47 83.15,-65.74 111.22,-77.86l-148.13 666.09c-7.09,-9.96 -0.61,4.84 -8.42,-17.76 -0.01,-0.03 -3.35,-12.1 -3.44,-12.5l-62.7 -478.11zm556.75 346.1c-9.69,-73.99 -13.97,-149.53 -21.17,-225.3 -5.44,-57.28 -33.15,-177.16 -4.25,-211.73 23.58,-28.19 222.97,-226.34 245.77,-238.72 -21.91,101.54 -77.14,241.37 -110.58,344.65 -36.47,112.61 -73.73,223.06 -109.77,331.1zm483.15 -121.76l-197.8 -579.94c61.1,23.67 823.35,421.45 840.12,438.07l-642.31 141.87zm-2455.98 1741.44l0 9.12 181.49 340.02c19.42,62.84 -61.41,231.22 -13.53,294.57 96.26,127.34 106.71,131.37 106.74,246.89 0.02,53.35 9.14,113.82 -9.56,156.96 36.79,20.46 157.76,274 170.14,292.5 5.69,8.51 6.16,9.13 10.36,14.02l367.7 -140.57c-11.07,68.37 -52.67,174.63 -74.53,243.3 -22.12,69.48 -31.94,42.71 -13.56,117.49 19.2,78.13 84.54,340.44 86.07,387.19 2.06,62.78 -21.37,254.47 -5.61,294.08l363.94 743.01c9.4,18.81 17.74,33.88 26.11,52.92 16.69,38.01 6.29,40.88 40.51,37.42 16.02,-26.67 7.67,-435.69 10.9,-507.1 153.41,321.79 349.13,799.05 490.5,1149.78 19.5,48.37 56.58,123.28 68.69,170.81l16.21 0c18.13,-21.26 7.62,5.96 10.26,-28.98l-22.68 -208.07c-8.73,-78.22 -17.9,-160.8 -26.3,-238.98 -16.47,-153.47 -42.93,-318.96 -50.8,-471.31l296.84 211.26c46.95,34.34 100.06,86.06 102.21,33.24 0.24,-5.85 -1.51,-10.27 -3.13,-16.13l-33.67 -97.16c-20.38,-57.7 3.04,-77.19 28.89,-121.84l311.74 -565.12c17.43,-32.18 31.37,-94.69 50.98,-119.13l143.97 407.17c1.94,6.02 6.03,20.6 9.43,26.62 32.42,57.26 52.21,-26.23 62.78,-54.49 58.07,-155.28 165.69,-419.32 205.8,-547.56l29.58 45.3c15.48,31.78 49.04,120.23 70.09,106.95 19.78,-12.47 8.76,-51.39 5.28,-81.17 -3.25,-27.79 -5.58,-50.31 -8.66,-77.74 -10.2,-90.81 -9.35,-70.61 32.35,-132.09l287.67 -416.77c30.96,-43 119.06,-180.12 146.8,-207.08l-190.45 609.33c-16.01,51.26 -89.31,226.07 -22.24,186.46l126.88 -110.66c86.87,-84.05 254.57,-221.38 361.81,-320.94 11.56,-10.74 24.31,-18.51 36.34,-28.72l105.54 -95.62c28.87,-31.09 239.67,-565.61 280.96,-638.97 8.74,-15.54 5.69,-10.12 12.37,-16.46 26.7,27.17 57.49,76.67 79.77,107.17 47.52,65.03 55.09,96.46 92.39,91.7 22.95,-51.16 37.62,-603.59 53.08,-722.63l277.89 -104.8 0 -2.5c-186.41,-195.66 -141.27,-178.59 -261.62,-437.11 -37.35,-80.22 -69.52,-163.5 -107.69,-244.41l-427.85 -614.51c-39.19,-56.69 -53.44,-40.58 -21.29,-105.94 31.98,-65.02 20.62,-67.63 8.98,-139.67 -16.06,-99.37 -34.92,-197.54 -48.23,-298.2 -86.97,-53.65 -697.27,-366.07 -797.13,-417.28l-599.69 -312.87c-47.49,-25.65 -166.76,-78.47 -196.97,-105.48l-12.65 0c-17.42,29.96 -241.9,237.98 -303.13,302.72 -56.18,-7.59 -233.85,-116.25 -267.2,-102.91 -16.12,6.45 -88.15,62.3 -109.46,77.58 -37.34,26.78 -72.82,52.14 -108.15,78.88 -60.97,46.15 -46.94,28.29 -79.22,107.5l-160.13 399.72 -299.06 -3.5c-11.8,86.31 -27.88,457.53 -33.88,570.52 -7.07,133.28 11.19,146.51 -41.34,188.01l-503.81 474.02c-15.94,14.2 -21.96,21.46 -39.37,39.41l-115.97 106.88c-30.24,32.34 -49.15,45.37 -78.59,72.37 -47.8,43.82 -39.8,59.97 -82.93,61.57z"/>
  <path class="fil1" d="M2906.81 4757.14l0.07 -542.63c25.58,9.13 690.15,510.31 773.2,576.98 86.7,69.6 166.35,123.28 252.79,191.24 -41.74,1.01 -672.39,-140.83 -771.45,-161.72l-193.41 -41.28c-62.57,-12.61 -37.97,-7.63 -61.19,-22.59zm1113.75 223.43l49.54 -2831.16 751.59 2153.51c-68.7,47.38 -132.06,117.66 -200.4,167.8l-452.87 385.13c-22.27,19.72 -31.1,25.19 -51.82,42.02 -14,11.37 -95.72,82.21 -96.04,82.71zm-1087.59 -2713.43c47.03,111.17 86,222.48 129.82,334.25l778.54 2035.54c21.02,56.72 42.76,110.72 65.37,169.62 15.41,40.14 51.99,123.87 59.98,162.43l-927.54 -696.26c-38.38,-28.52 -91.89,-76.1 -132.72,-95.15l26.56 -1910.43zm-2744.42 1378.18l361.31 -117.89 118.72 256.17c-26.81,-1.22 -465.07,-128.47 -480.03,-138.27zm-19.08 -28.06c11.2,-23.76 219.06,-360.08 239.45,-376.68l124.34 256.35 -44.28 20.47c-71.51,22.05 -280.34,94.73 -319.51,99.86zm532.09 168l-125.11 -266.54 436.78 -141.16c0.29,53.68 -9.19,110.28 -13.64,160.43 -7.82,88.17 -11.18,65.89 -74.22,107.14 -37.77,24.71 -196.13,131.26 -223.8,140.13zm343.09 -416.31l300.37 4.4c-101.02,67.91 -212.17,146.09 -320.58,205.71l20.21 -210.11zm8.8 -27.59c0.03,-42.63 32.22,-160.53 42.9,-209.09 8.11,-36.89 15.48,-70.11 22.85,-104.11l27.28 -102.93c34.3,37.71 85.21,154.02 116.56,208.02l110.08 208.17 -319.67 -0.06zm-925.6 243l-92.56 -299.37c38.84,-7.67 143.99,-31.19 176.37,-26.69 -17.39,61.1 -61.59,290 -83.82,326.06zm310.27 -356.24c85.31,11.13 186.15,44.38 270.75,63.72 59.81,13.67 214.58,45.39 261.88,67.29l-409.22 133.83 -123.41 -264.83zm-264.7 317.9c3.67,-33.01 60.43,-286.47 76.05,-295.89l125.81 -25.58c-3.61,15.13 -181.08,301.47 -201.86,321.48zm-119.83 -413.76l177.73 41.17 -10.54 48.83 -186.56 32.44 19.37 -122.43zm864.2 -139.28l92.19 339.93c-87.46,-11.76 -193.5,-46.06 -282.35,-66.99 -30.48,-7.17 -241.12,-51.65 -265.9,-69.04l456.06 -203.9zm-658.84 190.14l71.52 19.46 -77.59 12.58 6.07 -32.04zm1837.08 110.89c-43.16,35.56 -93.93,74.7 -140.41,108.39l-106.52 -327.58 387.38 104.95 -140.45 114.25zm-1998.39 -181.73c30.72,-20.38 104.33,-44 141.41,-58.86 48.85,-19.57 96.78,-37.5 141.43,-55.46 -14.64,27.46 -38.23,42.24 -54.32,61.86 -88.93,108.43 -84.87,87.89 -137.61,75.19 -28.98,-6.98 -61.39,-16.19 -90.91,-22.73zm353.83 54.71c57.78,-93.38 118.18,-191.56 178.7,-285.78 34.68,-53.99 150.05,-247.7 179.98,-279.97l96.54 362.13 -455.22 203.61zm1474.98 244.75c-96.46,-12.36 -187.31,-24.62 -281.55,-37.16 -46.36,-6.17 -95,-12.33 -142.6,-18.73 -55.05,-7.41 -86,3.28 -109.8,-43.63 -25.72,-50.71 -207.99,-375.53 -220.28,-414.01l641.33 170.24 112.9 343.29zm-980.26 -430.08c14.85,-14.35 146.81,-73.81 171.24,-78.37l-88.48 384.74 -82.76 -306.37zm424.52 -1237.67l427.81 1287.9 -643.45 -166.91 215.64 -1120.99zm-681.92 978.07c-1.69,26.83 -185.3,302.98 -214.71,351.43 -17.56,28.93 -54.33,95.57 -73.13,113.22l-118.09 -30.86c5.78,-18.92 5.37,-14.66 21.48,-30.78 10.56,-10.56 14.63,-14.41 27.07,-26.46l205.56 -216.8c19.46,-22.14 29.09,-35.31 50.41,-56.93l101.4 -102.81zm0 0c9.07,-19.26 7.15,-14.35 21.5,-26.67 -12.87,46.43 -4.56,20.28 -21.5,26.67zm333.26 188.94c-26.45,12.33 -57.33,28.14 -86.39,36.55l-89.33 -332.58 261.68 252.78c-18.53,15.83 -44.98,24.15 -85.96,43.25zm-960.33 177.81c25.44,-113.35 -3.41,-98.34 69.04,-170.76 41.45,-41.43 324.86,-328.29 360.74,-350.59l-66.57 375.27c-5.73,5.95 -2.64,3.56 -11.89,9.35l-76.4 30.95c-30.13,12.43 -57.94,23.27 -91.22,36.33 -51.85,20.35 -131.42,56.78 -183.7,69.44zm466.03 -549.35c18.37,-7.05 222.22,21.41 249.58,33.5l-272.51 296.93c-18.23,22.5 -16.44,27.49 -43.8,40.63l66.72 -371.06zm2362.15 696.81l-11.4 884.19c-22.02,-16.85 -452.23,-727.85 -517.03,-831.91 -16.03,-25.74 -68.46,-95.74 -63.9,-121.52 5.83,-32.9 384.83,-592.74 451.27,-701.34l150.8 -231.07 -9.73 1001.64zm1533.44 -804.74l304.22 281.53c85.85,87.31 225,208.44 297.06,285.99l299.76 283.35c31.83,33.06 36.44,36.17 60.3,80.44l151.47 287.4 -486.24 -529.12c-95.98,-113.24 -244.89,-263.19 -348.47,-381.89l-101.29 -113.36c-13.44,-13.52 -25.28,-23.49 -37.05,-36.63l-139.77 -157.72zm-287.44 -201.69c37.5,38.66 778.35,1346.3 870.06,1498.11 25.69,42.53 109.89,178.76 122.78,219.75l-280.5 326.5c-23.97,-22.72 -165.91,-461.74 -180.13,-503.49 -58.89,-172.98 -115.48,-338.57 -178.28,-512.25l-265.72 -766c-20.46,-59.52 -81.44,-209.99 -88.21,-262.62zm-93.01 -157.28l-56.91 2860.18 -1045.1 -2741.01 1102.01 -119.17zm107.97 112.34l538.04 586.85c35.76,35.66 56.61,59.72 91.39,96.19l805.24 885.82 -428.88 172.63c-33.38,-38.7 -822.58,-1429.24 -944.04,-1630.14 -18.6,-30.76 -44.87,-88.96 -61.74,-111.35zm1066.61 956.52c-119.81,-121.29 -246.71,-230.94 -366.69,-350.46l-513.11 -485.74c-25.91,-21.09 -44.15,-44.39 -70.63,-69.94 -18.6,-17.95 -62.25,-53.66 -71.62,-71.69 53.85,23 258.81,160.54 333.66,205.07 85.5,50.87 936.69,576.62 979.71,626.4 -20.94,47.46 -48.76,95.29 -71.66,146.61 -12.83,28.78 -54.91,120.52 -72.56,139.38l-147.1 -139.63zm-3475.48 -1150.08l409.58 945.23c-46.6,-67.69 -92.04,-150.03 -135.14,-221.24l-260.82 -436.26c-29.44,-47.14 -116.26,-178.85 -128.55,-221.85l114.93 -65.89zm200.84 -120.62l267.45 1117.58 -332.39 -757.74c-36.63,-82.19 -76.98,-170.07 -110.94,-256.71l175.87 -103.13zm-282.21 66.33c35.21,0 109.94,0.52 38.8,42.63 -23.7,14.03 -41.82,27.92 -68.13,36.37l29.33 -79zm-64.89 73.48c-20.28,-25.9 -59.01,-93.59 -71.5,-123.56l106.17 41.11c-4.02,21.16 -8.22,28.04 -15.69,47.53 -1.7,4.43 -5.38,14.99 -7.61,19.3 -11.12,21.52 -6.12,10.43 -11.37,15.63zm390.38 -148.31c46.36,7.8 679.05,242.93 794.3,284.01 19.15,6.83 41.4,15.08 59.22,21.22l47.46 20.48c0.7,-1.3 2.85,1.99 4.17,3.13l-601.13 923.3c-13.29,13.69 5.26,-0.66 -13.36,11.48l-290.66 -1263.61zm-302.97 -5.2l20.88 52.3c-56.51,0.24 -66.25,-7.13 -118.61,-29.05l-33.45 -19.13 131.18 -4.11zm34.3 -0.28l180.69 -1.65c-16.07,15.44 -39.48,30.95 -64.23,44.48 -27.18,14.86 -59.54,10 -96.74,9.54l-19.71 -52.37zm419.56 1120.05c28.89,45.54 78.74,118.78 98.75,169.19l-399.76 -103.8 -402.35 -1212.68c18.97,14.31 85.41,131.73 105.28,163.72 33.39,53.77 64,108.82 98.22,163.15 132.92,211.09 268.5,448.67 400.76,658.25 34.89,55.29 63.3,105.72 99.11,162.16zm40.22 -1879.28c8.37,6.33 4.53,2.77 12.04,10.74l169.26 253.59c58.83,83.71 117.57,176.38 173.6,261.97 33.22,50.74 325.49,483.5 342.49,524.76l-909.2 -325.57 211.81 -725.49zm-1624.28 1411.74c3.19,-19.34 24.78,-32.89 39.58,-47.66 86.3,-86.16 651.53,-658.4 681.52,-678.85l-233.59 382.67c-27.08,41.44 -214.06,355.44 -236.03,378.92l-251.48 -35.07zm1150.46 -680.19l-22.03 -56.74 171.54 52.7 -149.51 4.04zm-868.95 729.06c11.56,-19.12 470.11,-778.11 501.65,-806.35 -13.94,97.86 -198.48,1069.79 -209.71,1087.62 -17.79,-11.94 -281.75,-265.82 -291.94,-281.27zm660.71 -725.73c-18.55,-11.78 -79.03,-115.33 -84.69,-134.29 49.81,12.22 104.21,27.98 153.82,41.94 84.04,23.65 76.98,8.9 106.11,88.87l-175.24 3.48zm-339.77 -296.13c26.35,17.19 165.2,115.19 178.26,135.61l-199.62 39.96 21.36 -175.58zm237.22 126.81c10.04,-23.4 121.02,-140.84 138.79,-154.37l91.41 216.85 -230.2 -62.48zm3478.39 615.84c-35.23,-8.23 -335.22,-169.11 -395.02,-198.91l-968.98 -499.11c-54.21,-28.37 -145.04,-69.01 -187.03,-101.56l1723.77 624.61c-13.27,28.23 -21.34,24.15 -44,44.74l-128.74 130.23zm-3430.84 -978.83c14.13,27.96 71.8,157.3 73.71,181.24 -19.61,23.25 -42.3,43.67 -63.06,69.06 -13.78,16.85 -48.7,55.32 -64.6,65.11l53.95 -315.42zm1828.89 129.93c59.37,0.52 1101.88,200.37 1243.33,225.43 77.84,13.79 52.16,5.92 99.72,47.18l312.21 277.96c33.97,34.7 60.85,46.65 73.26,72.34l-1728.53 -622.9zm1303.81 205.32c-58.72,-4.33 -529.61,-94.8 -624.41,-112.98l-612.63 -114.84 1270.44 76.98 -33.39 150.84zm-3404.22 -128.94c21.5,-31.58 89.89,-93.26 120.49,-124.21l123.27 -113.38 -59.63 364.2 -184.13 -126.61zm4074.59 1269.71c-42.41,-19.04 -250.86,-154.75 -312.85,-192.21l-878.67 -549.05c-16.37,-9.34 -22.98,-12.94 -38.02,-22.22l-1221.49 -764.13c35.52,10.3 123.1,59.07 162.02,80.83 124.78,69.77 346.69,177.03 487.13,250.23 214.09,111.58 429.49,222.06 644.88,333.65 216.3,112.06 432.9,225.94 651.07,334.32 216.97,107.79 430.54,225.07 646.39,332.57 -6.63,13.86 -117.17,176.19 -140.45,196.02zm-3586.69 -1408.5c17.98,-21.36 32.85,-36.2 50.46,-56.97 21.3,-25.13 31.43,-39.67 48.85,-58.46l154.24 -167.36c17.73,-22.17 28.44,-38.9 57.51,-57.24l-35.76 780.24c-34.14,-2.86 -160.86,-41.81 -212.07,-55.46 -42.44,-11.32 -48.08,-6.11 -61.73,-25.82 -7.55,-10.9 -97.09,-220.54 -104.22,-245.67l102.71 -113.26zm341.74 -366.04l157.11 62.27c-5.86,38.09 -164.83,595.59 -186.9,620.89l29.79 -683.15zm470.85 84.8l388.74 238.8c124.82,82.24 258.02,161.97 383.66,239.63l581.86 363.41c42.16,27.17 160.8,93.06 185.01,119.24l-1082.41 115.19 -456.86 -1076.26zm1879 350.63c-73.37,3.11 -178.57,-8.12 -253.75,-13.06l-765.67 -45.91c-272.81,-18.7 -202.79,13.6 -430.98,-112.54 -61.45,-33.97 -121.05,-58.37 -182.63,-92.56 -51.38,-28.54 -122.11,-68.27 -171.74,-91.9l1804.76 355.98zm-1922.68 -376.88l398.22 944.52c-26.84,-25.17 -128.75,-187.02 -158.72,-232.07 -51.46,-77.33 -102.81,-156.59 -154.32,-234.47 -52.76,-79.75 -102.2,-154.31 -155.39,-233.21 -48.18,-71.47 -112.5,-157.61 -151.54,-233.16l221.76 -11.61zm1697.02 304.23c-406.7,-90.26 -868.94,-168.78 -1288.93,-255.64 -42.23,-8.73 -140.48,-32.95 -174.8,-33l1149.13 64.54c33.39,5.39 311.86,219.16 314.6,224.11zm-2209.22 -334.63l-235.07 265.74c-17.34,16.72 -28.35,31.06 -43.73,49.9 -29.29,35.89 -61.89,68.8 -90.21,103.06 -24.58,-21.2 -93.89,-198.98 -95.61,-214.5l464.61 -204.19zm-11.51 -34.63l-421.72 178.36c26.95,-57.98 71.5,-114.78 104.95,-172.23l316.77 -6.13zm118.28 -330.42l128.3 366.3 -149.52 -61.1 21.22 -305.2zm555.07 -103.37l-151.66 469.07 -229.13 12.88 127.48 -464.84 253.3 -17.11zm-551.57 19.83c38.21,-18.02 177.63,-139.22 220.54,-155.31 7.61,38.8 44.06,109.85 46.29,138.39 1.47,18.81 -102.54,409.12 -120.74,435.36l-146.09 -418.43zm303.06 -32.79c-25.48,-12.86 -37.17,-75.7 -46.04,-100.24 -21.45,-59.37 -18.97,-54.04 -7.88,-119.93 9.71,-57.7 24.28,-205.16 40.51,-247.28 21.43,18.31 250.8,434.08 256.25,450.36l-242.84 17.09zm-111.22 -324.26c11.42,-19.86 17.61,-32.94 27.91,-52.56l23.24 -38.86c0.73,-1.02 2.84,-1.79 3.39,-4.37 0.55,-2.61 2.28,-2.97 3.47,-4.4 -2.76,40.46 -30.69,246.14 -44.66,266.93 -10.34,15.37 -156.13,121.29 -173.78,130.13l160.43 -296.86zm-2215.4 3034.47l0 30.81c26.02,26.58 94.61,306.84 112.49,356.04 7.32,20.15 -17.38,9.63 54.03,27.64 172.67,43.54 365.53,113.51 550.91,157.05 10.45,-18.87 -14.3,-4.76 20.95,-29.89 16.78,-11.97 26.93,-15.84 45.76,-28.4l268.76 -173.5c38.05,-25.45 343.82,-223.69 360.41,-224.65l519.14 70.2c35.59,7.92 20.06,-2.79 83.27,-49.25 55.26,-40.62 219.25,-184.02 250.56,-193.51 23.77,14.55 378.76,604.44 423.14,677.58l155.97 252.97c27.65,44.11 34.52,45.29 33.97,109.52 -1.55,182.2 -0.2,365.02 -0.16,547.29 107.45,31.45 673.18,146.28 826.54,178.77 44.3,9.39 89.09,18.96 138.1,29.65 24.51,5.34 47.04,10.26 71.49,15.24 22.06,4.49 50.78,8.05 70.85,19.72l24.83 0c23.59,-31.79 151.54,-130.11 189.91,-164l195.07 -166.78c15.02,-13.56 28.38,-24.72 46.48,-40.54l343.95 -292.96c16.88,-14.98 28.86,-20.32 48.78,-38.27l295.57 -341.19c42.5,-52.91 174.62,-88.79 243.96,-118.07 82.48,-34.82 175.15,-72.2 257.42,-102.91l0 -10.44c-24.02,-28.71 -82.66,-145.3 -104.55,-188.07 -32.72,-63.96 -70.15,-129.28 -102.43,-192.62 -43.47,-85.3 -51.82,-42.76 26.8,-199.4 22.11,-44.04 83.79,-154.53 94.21,-196.34l-273.24 -186.2c41.92,-71.75 104.57,-145.89 153.29,-221.1l-8.29 -6.32c-69.74,-47.53 -477.86,-233.29 -521.15,-274.08 60.41,-65.81 148.96,-129.78 203.96,-201.69 -45.87,-21.46 -293.02,-259.37 -373.32,-328.97 -188.65,-163.53 -119.98,-68.81 -77.68,-302.07 -77.71,-5.23 -203.61,-35.01 -280.77,-49.31 -145.34,-26.94 -141.55,-8.27 -243.85,-85.44l-288.3 -207.58c-25.43,-11.24 -702.95,-45.93 -765.71,-49.5 -204.02,-11.62 -412.77,-31.84 -616.55,-36.59l151.25 -464.84c21.79,-41.77 9.93,-17.56 -28.47,-86.64 -81.83,-147.21 -203.7,-346.56 -271.2,-479.76l-4.15 0c-52.24,111.27 -212.32,395.48 -284.85,528.37 -32.58,59.7 -26.81,55.91 -30.31,128.85 -4.96,103.42 -11.25,202.69 -16.71,308.35l-401.47 7.78c-30.26,51.55 -156.73,257.94 -194.02,286.59l-181.79 179.9c-31.95,32.2 -60.94,43.11 -64.21,63.42 -0.23,1.46 -0.77,3.92 -1.04,5.74l-24.52 237.46 194.74 -35.03 -1156.46 1156.77c-107.89,108.7 -75.26,24.82 -112.13,243.24l-29.24 146.96z"/>
 </g>
</svg>
