<?xml version="1.0" encoding="UTF-8"?>
<!DOCTYPE svg PUBLIC "-//W3C//DTD SVG 1.1//EN" "http://www.w3.org/Graphics/SVG/1.1/DTD/svg11.dtd">
<!-- Creator: CorelDRAW 2018 (64-Bit) -->
<svg xmlns="http://www.w3.org/2000/svg" xml:space="preserve" width="5.27in" height="5.536in" version="1.1" style="shape-rendering:geometricPrecision; text-rendering:geometricPrecision; image-rendering:optimizeQuality; fill-rule:evenodd; clip-rule:evenodd"
viewBox="0 0 5270 5536"
 xmlns:xlink="http://www.w3.org/1999/xlink">
 <defs>
  <style type="text/css">
   <![CDATA[
    .fil0 {fill:#F58634}
   ]]>
  </style>
 </defs>
 <g id="Layer_x0020_1">
  <metadata id="CorelCorpID_0Corel-Layer"/>
  <g id="_1820825362560">
   <path class="fil0" d="M2344.16 5432.91c104.6,-47.44 162.77,-53.74 287.5,-54.31 141.82,-0.65 175.56,8.86 295.51,53.08 -7.07,9.61 -35.08,37.02 -47.86,48.68 -27.17,24.79 -29.06,24.28 -71.85,12.48 -201.64,-55.59 -135.28,-57.63 -339.26,-1.53 -46.65,12.83 -42.97,15.69 -72.54,-9.12 -18.7,-15.69 -34.85,-33.74 -51.48,-49.28zm-20.07 -25.23c7.18,-104.96 46.03,-96.16 110.69,-121.11 123.76,-47.76 270.67,-49.17 396.11,-2.31 74.03,27.65 113.3,23.71 115.49,123.38 -159.01,-51.85 -125.62,-56.63 -308.08,-57.38 -208.4,-0.86 -151.42,9.62 -314.2,57.42zm33.93 -125.29c21.23,-86.99 13.22,-72.03 96.23,-101.85 87.74,-31.52 271.7,-31.74 357.06,-2.28 82.26,28.4 85.17,17.41 101.64,104.74 -69.41,-16.48 -140.46,-61.33 -274.92,-63.07 -127.91,-1.66 -246.55,57.71 -280.01,62.47zm20.44 -104.85l-3.54 -84.01c216.16,-59.85 305.48,-52.58 521.38,-1.3l-4.09 84.04c-34.41,-3.68 -67.54,-27.63 -111.64,-34.03 -151.17,-21.96 -128.93,-19 -274.35,-1.7 -55.19,6.57 -77.94,23.58 -127.77,37zm-5.43 -114.24l-2.48 -57.12c43.18,-8.81 76.11,-29.72 124.44,-36.21 151.38,-20.32 250.56,-27.56 405.27,39.46l-1.72 49.38c-14.86,2 -162.44,-36.71 -260.23,-37.82 -112.08,-1.28 -183.06,26.57 -265.29,42.3zm-4.54 -86.38l-3.14 -80.6c43.81,-13.47 76.86,-37.22 121.96,-44.9 159.34,-27.13 137.82,-25.44 294.77,-0.46l123.5 51.75 -2.96 75.13c-44.62,-10.25 -71.43,-28.69 -119.86,-35.2 -42.1,-5.66 -103.87,-16.48 -144.37,-16.93 -39.81,-0.45 -103.69,11.06 -145.06,16.37 -52.22,6.69 -79.76,27.71 -124.84,34.85zm-5.43 -112.22l-4.41 -94.91c78.67,-20.26 76.7,-54.65 272.97,-57.67 43.04,-0.66 107.18,8.48 151.66,13.13 54.7,5.72 81.65,32.97 128.69,43.92l-4.2 97.82c-90.39,-33.17 -149.89,-62.11 -269.48,-63.72 -129.16,-1.74 -250.73,57.72 -275.22,61.43zm-6.29 -126.39l-5.94 -119.3c118.15,-81.07 453.92,-87.98 568.48,-0.07l-4.54 120.74c-66.46,-15.24 -83.56,-53.92 -276.44,-55.87 -43.85,-0.44 -107.02,8.96 -152.08,13.42 -59.04,5.83 -85.97,35.94 -129.5,41.08zm-7.56 -153.87l-5.73 -112.28c50.79,-14.3 107.17,-75.08 294.86,-72.84 125.81,1.5 179.7,18.95 288.35,76.2l-4.42 109.35c-73.7,-19.4 -112.72,-58.69 -283.86,-60.6 -43.35,-0.48 -111.51,11.48 -157.04,16.69 -59.54,6.81 -81.98,30.52 -132.17,43.48zm-7.84 -141.81l-5.54 -125.16c117.98,-50.62 135.39,-64.93 296.09,-67.22 46.68,-0.67 119.76,9.63 168.77,15.16 49.22,5.55 89.57,33.84 133.87,50.99l-4.83 126.7c-49.5,-15.81 -71.45,-45.8 -128.62,-53.27 -197.16,-25.76 -130.61,-24.89 -325.94,-0.68 -64.44,7.99 -82,40.23 -133.8,53.48zm-4.2 -156.91l-8.96 -107.71c32.88,-16.46 96.84,-55.56 132.15,-59.78 49.42,-5.91 129.76,-14.75 177.73,-14.22 105.58,1.17 226.37,6.94 304.22,79.39l-4.48 101.97c-51.14,-16.13 -78.93,-42.48 -135.84,-48.03 -179.26,-17.5 -296.51,-32.47 -464.82,48.37zm-10.47 -146.04l-6.13 -115.55c47.3,-15.21 83.87,-47.36 136.55,-54.96 49.58,-7.15 128.48,-19.79 175.24,-20.76 43.8,-0.91 126.88,13.85 174.84,19.88 59.49,7.48 91.41,39.84 142.94,54.87l-5.19 119.19c-36.76,-2.06 -76.58,-45.93 -128.43,-51.78 -51.98,-5.87 -126.76,-14.19 -178.2,-14.66 -50.62,-0.46 -126.93,8.77 -178.43,14.14 -51.74,5.39 -109.39,55.06 -133.19,49.61zm-8.05 -149.84l-5.87 -123.14c88,-72.39 211.42,-78.43 318.78,-79.78 52.94,-0.67 130.41,8.67 184.85,13.93 36.59,3.53 118.79,46.7 141.16,65.8l-5.01 124.99c-39.46,-7.04 -112.1,-69.19 -314.53,-71.37 -65.94,-0.71 -190.58,14.54 -251.69,44 -20.44,9.86 -46.15,25.64 -67.69,25.59zm-7.06 -159.27l-7.35 -124.78c54.04,-12.85 88.2,-44.35 149.3,-50.19 181.53,-17.35 344.06,-33.92 512.51,53.65l-5.62 121.78c-41.25,-18.18 -90.38,-52.9 -137.35,-57.77 -203.25,-21.06 -172.22,-17.25 -369.71,-0.4 -66.27,5.65 -88.7,40.15 -141.78,57.7zm-14.24 -267.46c81.53,-68.48 233.24,-86.27 334.28,-88.21 90.7,-1.74 264.98,20.99 341.59,88.18l-4.47 113.76c-54.68,-15.6 -84.23,-43.23 -145.7,-48.96 -57.27,-5.33 -128.61,-15.18 -184.76,-15.72 -54.85,-0.52 -128.91,10.46 -185.03,15.33 -69.04,6.01 -92.32,35.11 -150.61,48.8l-5.29 -113.18zm-0.04 -35.98l-10.54 -164.33c127.84,-48.44 93.86,-76.94 344.91,-80.42 56.55,-0.78 140.12,10.67 198.34,16.09 50.06,4.66 110.17,42.49 151.2,66.63l-5.5 161.97c-44.11,-20.57 -97.72,-53.91 -149.56,-59.8 -250.89,-28.54 -129.3,-27.17 -376.59,-0.38 -69.5,7.53 -96.41,36.41 -152.26,60.24zm-42.46 -326.68c22.02,-20.03 127.8,-93.74 152.24,-99.66 39.5,-9.55 185.02,-31.67 224.67,-32.54 46.13,-1.02 168.4,21.54 220.36,30.21 44.34,7.39 122.24,71.95 160.97,96.76 3.53,38.83 -16.14,98.28 -23.05,138.37 -56.7,-18.13 -88.59,-56.34 -152.75,-62.63 -243.7,-23.87 -161.76,-20.28 -398.69,-0.33 -75.69,6.37 -95.85,45.24 -157.56,63.06l-26.2 -133.25zm769.13 -34.47c-49.6,-20.06 -104.34,-84.63 -159.04,-94.05 -251,-43.22 -204.67,-40.53 -454.13,-0.61 -57.57,9.21 -111.76,71.98 -162.87,95.07l-35.88 -170.37c32.11,-24.69 146.02,-112.67 180.14,-121.05 40.17,-9.87 216.57,-48.5 245.89,-47.74 32.87,0.86 207.97,38.32 245.06,48.94 32.26,9.24 144.28,96.15 175.66,118.76l-34.81 171.04zm134.97 -271.96c84.84,-26.72 94.65,-43.69 201.1,-47.01l90.26 299.57c22.21,78.58 27.82,74.77 15.41,160.73 -15.63,108.29 -50.47,459.78 -84.23,504.41 -34.15,45.15 -141.8,201.46 -168.49,227.53 27.54,-145.28 109.02,-307.56 103.01,-416.86l-15.31 -330.31c-3.62,-86.7 -0.89,-78.45 -32.08,-148.48 -18.9,-42.43 -35.33,-79.4 -55.41,-122.7 -19.05,-41.07 -35.38,-87.42 -54.26,-126.88zm-1101.29 1144.13c-28.59,-28.05 -132.12,-178.64 -165.12,-223.83 -39.15,-53.63 -69.22,-385.19 -86.1,-501.63 -12.63,-87.1 -10.56,-77.44 13.19,-159.83 15.1,-52.39 26.55,-102.11 43.56,-154.17 15.8,-48.33 39.41,-103.76 48.04,-151.39 71.69,1.05 143.67,16.37 199.18,49.25 -6.18,34.96 -85.91,200.2 -106.3,243.2 -44.41,93.67 -34.8,179.43 -40.61,307.18 -2.5,55.14 -5.13,110.29 -7.62,165.43 -6.45,142.75 78.26,268.28 101.79,425.79zm1056.68 -1156.78l97.16 -478.8c17.16,16.93 221.61,390.95 222.51,411.15 -243.61,17.75 -106.85,-6.65 -319.67,67.65zm-1056.49 -475.16l101.59 474.56c-51.57,-13.7 -96.84,-38.03 -145.57,-52.31 -39.19,-11.48 -131.09,-11.22 -177.14,-14.87 0.34,-25.22 87.26,-167.44 106.07,-203.74 11.02,-21.26 95.52,-184.08 115.06,-203.64zm151.7 555.14c-11.61,-15.39 -35.64,-138.68 -35.65,-152.74 -0.02,-19.56 22.02,-32.07 41.84,-50.99 19.44,-18.55 33.39,-25.53 53.46,-45.55 101.46,-101.19 101.01,-77.18 281.17,-114.26 129.93,-26.74 162.87,0.54 323.04,31.04 53.4,10.17 63.63,18.82 121.14,76.19l105.2 89.97 -33.04 168.11c-56.18,-23.85 -120.24,-101.65 -181.41,-115.47 -297.52,-67.22 -206.68,-60.68 -494.98,-0.77 -52.88,10.99 -118.58,75.48 -180.77,114.46zm-45.61 -197.04c-7.11,-31.37 -43.76,-181.36 -35.91,-199.99l191.42 -171.36c26.67,-17.98 286.37,-62.35 312.91,-62.82 41.17,-0.73 159.29,26.58 206.51,35.14 104.98,19.01 85.76,-0.09 172.2,79.2 147.24,135.08 163.07,84.01 95.91,319.01 -37.61,-21.87 -154.04,-142.33 -183.31,-152.44 -25.2,-8.7 -262.87,-57.03 -285.7,-57.3 -23.74,-0.29 -258.03,47.01 -286.29,56.24 -21.74,7.1 -78.53,59.11 -95.83,75.61l-91.89 78.71zm1461.31 -1139.02c21.35,66.63 164.02,845.32 190.33,983.61 11.05,58.08 63.24,290.06 59.82,330.35l-438.82 47.5 -49.74 -141.66 84.76 -5.6c9.64,-25.24 20.73,-130.09 22.71,-161.57 3.98,-63.23 -49.33,-210.35 -49.02,-315.74 0.9,-308.15 -19.61,-202.79 79.95,-472.33l100.02 -264.56zm-1826.34 1213.53l83.01 5.92c-5.37,43.43 -24.98,108.7 -48.32,140.93l-438.22 -46.03 248.49 -1314.96c27.16,47.73 120.77,312.99 152.1,398.68 26.61,72.76 30.2,68.05 30.02,153.87 -0.37,172.18 10.2,179.4 -23.02,345.7 -8.04,40.23 -27.87,116.5 -26.04,153.53 1.5,30.39 13.32,135.94 21.97,162.37zm1499.3 -854.26c50.59,55.84 87.53,287.93 108.98,379.89 25.37,108.74 78.65,304.04 45.36,410.54 -36.91,-53.25 -145.24,-267.72 -192.02,-349.21 -53.62,-93.41 -37.39,-75.38 -9.95,-210.15 15.73,-77.24 33.87,-153.73 47.63,-231.06zm-1480.92 790.42c-15.02,-102.12 -12.94,-114.23 6.62,-212.11 25.65,-128.32 92.5,-505.63 148.22,-577.79l73.27 343.79c7.35,39.5 -14.49,57.82 -32.86,93.41l-195.26 352.7zm300.79 -243.72l-38.96 -177.96c73.87,-48.82 191.9,-225.26 250.23,-240.81 64.74,-17.26 128,-33.31 193.59,-50.74 108.32,-28.78 89.6,-35.07 198.24,-7.24 65.33,16.74 129.06,35.09 193.43,51.39 49.16,12.45 45.99,13.3 76.76,41.37l119.07 124.93c99.77,103.87 80.83,89.13 67.26,154.72 -7.17,34.69 -14.2,68.84 -21.65,103.91 -36.74,-18.47 -107.98,-92.5 -147.19,-123.9 -19.46,-15.58 -32.83,-35.82 -53.11,-45.71 -22.27,-10.85 -286.37,-58.96 -317.56,-59.45 -22.23,-0.35 -300.87,49.96 -318.64,58.06l-150 127.19c-23.48,22.66 -30.18,28.13 -51.49,44.22zm-38.4 -208.36l-53.19 -220.25c-2.23,-36.91 85.7,-89.81 130.59,-136.25 29.47,-30.48 106.36,-107.55 149.89,-120.3 71.4,-20.92 140.57,-39.61 210.83,-60.08 116.44,-33.94 96.2,-40.43 214.17,-6.02 70.08,20.45 140.96,40.81 210.55,60.06 45.59,12.61 59.28,23.87 84.76,47.08l218.51 197.7 -46.48 238.82c-22.8,-12.57 -35.64,-33.25 -53.53,-53.7l-161.5 -168.26c-20.24,-16.43 -309.62,-95.15 -346.24,-95.96 -19.02,-0.43 -329.17,80.11 -345.79,89.21l-212.57 227.96zm-61.4 -273.26c-11.81,-19.54 -28.14,-96.12 -25.01,-121.8 2.12,-17.43 31.69,-88.93 40.33,-111.38 38.35,-99.67 46.28,-102.83 132.13,-178.04 108.15,-94.75 37.47,-76.12 198.3,-104.26 69.55,-12.17 203.79,-43.21 267.67,-44.81 26.91,-0.68 369.26,56.24 389.12,67.74l158.7 151.17c36.02,30.77 34.25,44.45 54.11,97.64 50.13,134.29 52.24,96.29 22.7,244.84l-188.91 -164.36c-17.94,-18.55 -43.06,-40.96 -64.28,-54.52 -14.14,-9.04 -348.81,-105.73 -365.61,-106.13 -14.93,-0.36 -348.64,92.47 -367.22,102.79l-127.26 110.74c-42.1,38.33 -82.45,80.41 -124.76,110.37zm1395.35 217.84c-24.15,-123.26 -49.87,-225.64 -100.36,-328.27 12.52,-27.41 245.66,-273.04 273.44,-301.21 -19.96,84.56 -120.35,324.03 -160.8,436.37 -20.56,57.11 -1.65,130.18 -12.28,193.11zm-1729.63 -630.17c46.81,40.85 164.37,181.34 206.1,219.42 25.43,23.21 45.23,49.66 67.33,76.33 -10.55,48.54 -45.97,103.14 -59.56,156.78 -14.26,56.31 -20.12,129.04 -43.62,176.26 -1.44,-59.15 9.99,-140.54 -9.32,-192.64l-160.94 -436.14zm-316.09 1281.01c-21.87,-9.45 -8.8,-1.67 -27.04,-17.57 -7.15,-6.22 -12.56,-12.34 -19.71,-19.5l-362.08 -357.01c-15.02,-14.5 -25.41,-24.11 -40.3,-38.87 -14.53,-14.42 -22.57,-27.38 -36.79,-42.33 -35.87,-37.73 -142.24,-127.26 -161.16,-160.22l219.13 -168.16c58.98,-44.98 640.06,-489.15 677.63,-508.29l-249.69 1311.96zm2284.48 -1312.35c36.7,19.96 75.52,52.94 110.53,79.57l787.55 597.28c-14.94,30.15 -124.7,126.3 -157.81,158.31l-485.72 478.37 -254.55 -1313.53zm16.81 -27.31l795.73 -111.44c68.17,67.33 149.16,135.96 210.5,209.39 59.43,71.14 151.74,134.42 209.39,204.59 -40.93,139.76 -44.76,120.41 -133.26,206.31 -16.13,15.66 -27.51,26.59 -43.6,42.17l-129.34 132.76c-31.95,-11.54 -628.46,-469.83 -683.22,-511.51 -39.56,-30.11 -73.06,-55.46 -112.39,-85.46 -30.11,-22.97 -88.24,-59.75 -113.82,-86.81zm-2970.07 682.46c-26.06,-12.55 -145.06,-134.57 -176.05,-165.15 -15.34,-15.14 -25.06,-30.23 -40.17,-45.54 -42.66,-43.23 -78.14,-67.72 -94.75,-170.17l423.09 -412.22 790.96 108.35c-43.81,41.77 -596.63,454.3 -674.04,513.24 -76.29,58.09 -152.44,118.69 -229.06,171.5zm1273.76 -360.56l-196.03 -207.81c-16,-18.89 -24.87,-24.65 -42.67,-42.87 -28.6,-29.27 -42.49,-57.37 -77.34,-84.66l23.24 -404.53c4.39,-41.14 40.15,-70.38 68.91,-79.19l239.37 215.04c24.54,24.51 68.23,44.96 70.17,81.81 4.06,77.22 -11.35,207.91 -15.41,290.98 -4.36,89.21 -46.94,152.81 -70.24,231.22zm341.24 -681.13c44.89,-29.64 90.17,-24.67 152.81,-30.17 212.04,-18.61 131.49,-17.69 341.8,0.35 85.7,7.35 97.84,-1.34 151.4,32.06 76.75,47.86 149.98,91.02 224.29,139.24l16.64 322.9c-26.9,-11.97 -32.02,-28.08 -54.43,-48.1 -91.23,-81.48 -90.65,-105.44 -177.05,-119.33 -79.56,-12.8 -272.19,-57.35 -336.92,-55.84 -77.02,1.8 -249.78,42.32 -337.48,56.67 -101.09,16.54 -96.59,69.99 -224.88,167.76l17.56 -322.54 226.26 -142.99zm975.32 655.87c-28.07,-64.59 -57.47,-141.73 -60.98,-211.37 -4.24,-83.97 -18.22,-206.19 -15.41,-285.74 1.05,-29.48 41.59,-59.61 72.32,-84.42l204.27 -178.56c19.87,-19.44 18.26,-20.6 39.05,-33.14 17.2,8.39 27.5,19.93 42.82,35.85 19.97,20.76 18.07,15.57 20.5,54.24 2.89,46.25 5.36,94.11 8.17,140.44 18.82,310.96 38.2,217.72 -78.38,349.44l-145.56 158.04c-23.46,21.78 -49.86,56.35 -69.86,80.41l-16.94 -25.19zm-1523.61 -821.85c41.29,-24.93 149.11,-125.11 172.43,-170.62 37.93,-74.01 85.31,-148.66 120.28,-221.78 63.33,21.87 547.16,322.53 579.35,321.11 30.8,-1.35 502.82,-293.67 575.04,-321.14 40.38,60.99 83.55,155 122.22,224.9 27.01,48.81 85.45,96.16 130.36,133.78 16.46,13.79 26.2,27.83 40.49,40.57l-155.31 140.2c-14.35,13.91 -25.61,19.88 -40.08,32.78 -29.32,26.15 -89.08,88.07 -118.3,99.75 -78.19,-48.52 -152.07,-95.76 -232.09,-144.44 -42.06,-25.58 -269.78,-41.88 -328.71,-41.17 -65.48,0.79 -278.95,14.37 -325.19,44.22l-228.69 141.79 -161.52 -136.43c-30.73,-25.95 -138.43,-119.2 -150.28,-143.52zm-1007.98 -250.62l-391.43 1026.37 -326.33 -893.86 717.76 -132.5zm3757.48 -1l715.84 133.64 -327.39 896.82c-24.42,-43.16 -380.54,-988.67 -388.45,-1030.46zm-3677.85 641.31c40.95,-60.08 143.81,-146.59 196.91,-197.55l594.37 -579.85c-6.81,51.76 -45.11,176.03 -39.2,216.85 7.59,52.45 38.1,143.6 52.55,199.41 25.01,96.63 -6.79,351.2 -14.01,469.62l-790.62 -108.48zm2805.69 105.6c-6.36,-80.19 -10.39,-162.28 -15.3,-242.39 -5.42,-88.54 -17.98,-148.27 4.05,-233.86 11.24,-43.69 49.51,-166.64 51.27,-202.5 1.85,-37.6 -34.32,-154.72 -41.15,-204.36l200.96 194.01c35.31,33.93 65.66,63.16 101,96.96l97.59 100.28c66.53,66.92 133.65,128.12 202.06,193.82l191.6 192.03 -792.08 106zm20.38 -906.02c61.5,3.28 797.41,144.51 814.78,155.71 23.13,29.72 167.61,434.44 193.57,505.47 35.27,96.51 173.99,449.02 189.24,510.18 -23.62,-14.49 -130.61,-119.14 -151.71,-145.13 -61.67,-75.96 -515.55,-495.66 -637.87,-622.29 -12.98,-13.44 -20.63,-25.76 -33.64,-38.8l-374.39 -365.14zm-3253.86 1171.94l380.01 -1016.98c36.17,-17.38 737.8,-146.76 817.61,-155.59l-1047.18 1026.57c-34.72,33.58 -119.67,128.74 -150.44,146zm1666.19 -1181.67c17.1,-46.64 55.57,-103.21 77.78,-148.32 19.45,-39.52 17.46,-38.11 61.62,-50.65 27.54,-7.82 53.5,-15.31 81.95,-23.61 426.22,-124.24 258.71,-122.2 686.5,2.08 120.19,34.92 103.66,16.93 138.48,79.42 22.77,40.86 58.6,101.7 73.7,141.07 -26.06,22.04 -553.77,317.48 -558.85,317.83 -8.99,0.61 -536.33,-293.41 -561.17,-317.83zm1881.53 -397.1c58.73,8.06 760.42,254.72 905.42,303.03 63.19,21.06 61.04,27.77 100.95,77.19l83.13 94.93c38.63,48.37 146.85,156.67 163.03,191.87l-1561.94 -296.32 309.42 -370.7zm-3896.43 665.58c10.97,-18.42 39.42,-49.22 54.96,-66.78l196.96 -225.05c39.61,-44.73 29.14,-50.2 104.34,-73.97l537.43 -181.35c60.54,-20.62 316.79,-111.72 357.85,-119.04 23.91,22.49 59.53,65.52 80.33,93 44.02,58.15 197.19,226.49 223.18,266.16 8.71,13.29 -1.78,-8.17 8.46,14.44l-1563.51 292.59zm2663.15 -596.24c146.22,-10.76 291.77,-20.85 437.64,-31.19 36.88,-2.61 73.58,-5.12 110.04,-8.09 57.51,-4.69 51.76,0.53 88.28,27.5 41.96,31.01 89.48,65.48 134.26,96.73 76.2,53.19 74.07,39.56 101.22,195.89 2.05,11.81 1.5,14.11 2.47,25.48 0.16,1.89 0.36,6.98 0.65,8.74 11.95,73.49 70.34,201.6 46.06,293.64 -15.86,60.1 -35.94,124.88 -47.33,183.4 -38.85,-24.43 -128.11,-113.21 -170.25,-151.43 -18.71,-16.97 -38.3,-26.61 -52.62,-46.51l-146.19 -269.42c-23.46,-45.52 -48.74,-88.41 -74.31,-136.76 -41.73,-78.93 -18.78,-65.95 -111.89,-92.85 -73.58,-21.26 -263.7,-66.67 -318.02,-95.15zm-1050.57 792.54c-10,-58.23 -32.85,-133.12 -48.35,-189.93 -17.54,-64.28 23.12,-202.13 45.1,-279.04 0.33,-1.17 0.91,-3.01 1.18,-4.16 0.26,-1.13 0.63,-3.02 0.82,-4.15 29.16,-167.98 14.09,-167.48 107.41,-232.7 49.34,-34.48 90.81,-65.23 138.11,-99.52 35.39,-25.66 37.52,-25.87 92.35,-21.41 169.93,13.8 382.02,18.06 539.83,39.56 -105.8,33.46 -213.96,63.59 -321.35,94.99 -97.93,28.63 -67.02,13.48 -114.27,96.89l-145.46 270.12c-64.73,126.22 -82.76,148.56 -181.76,233.78 -32.92,28.34 -76.65,73.8 -113.6,95.59zm368.93 -860.73c37.61,-24.67 237.78,-79.84 265.7,-80.39 198.66,-3.89 464.2,-6.98 660.18,0.09 45.93,1.66 93.02,22.91 135.82,36.84l109.84 35.59c14.03,6.35 8.91,4.41 13.91,7.88 -29.33,11.98 -532.74,46.46 -596.21,45.56 -70.95,-1.01 -556.78,-32.11 -589.24,-45.56zm1938 -28.47c12.77,-14.74 18.58,-23.94 36.19,-44.11l112.23 -131.18c54.39,17.46 151.83,72.99 208.3,101.01 81.3,40.33 354.67,160.3 397.62,215.75 20.73,26.76 45.98,55.89 70.44,81.36 15.11,15.73 54.17,60.76 65.56,80.97l-890.34 -303.79zm-3577.01 300.55c8.76,-17.08 54.47,-69.5 68.26,-83.89 129.59,-135.2 18.1,-70.76 263.24,-191.98 68.72,-33.98 135.05,-66.84 202.89,-100.44 51.33,-25.42 155.15,-85.16 203.16,-99.85l150.21 178.31 -887.76 297.84zm2954.95 -252.38c14.15,-10.68 661.06,-203.61 717.51,-212.83 -12.14,29.44 -437.3,527.06 -453.57,537.65 -6.52,-41.28 -17.7,-87.09 -26.65,-127.74 -7.23,-32.8 -5.47,-28.69 -27.25,-45.4l-210.04 -151.67zm-1716.13 322.96c-21.24,-21.38 -39.52,-45.07 -57.45,-67.4l-280.22 -333.37c-24.44,-29.96 -96.1,-108.95 -109.59,-134.77 47.15,6.22 137.61,37.47 185.65,52.18l448.67 131.55c17.13,5.06 31.13,8.84 46.13,13.29l28.94 11.42c0.97,0.51 3.52,3.99 4.21,2.71 0.69,-1.3 2.85,1.78 4.17,2.82 -56.82,38.87 -110.89,80.2 -171.83,123.79 -66.53,47.58 -54.33,20.37 -80.58,143.86 -3.88,18.24 -5.7,40.19 -18.11,53.93zm-1642.34 333.18l0 13.54 396.58 1071.73c12.8,34.59 30.67,46.33 54.19,64.67l371.07 367.8c23.94,23.99 43.2,36.74 66.06,59.26 88.13,86.8 289.24,297.83 369.68,369.35l91.62 86.41c32.95,40.81 23.26,20.48 137.24,33.32 38.81,4.37 76.62,8.02 113.65,12.04 71.07,7.71 159.99,11.98 225.78,25.46 -31.99,164.99 -70.07,146.28 -47.48,305.36 8.04,56.64 55.63,458.56 75.96,491l219.11 302.98c13.77,17.12 2.74,25.56 28.35,8.35 15.44,-16.41 3.31,8.59 6.77,-14.01 2.33,-15.18 -28.31,-109.02 -34.02,-128.26 -15.03,-50.72 -28.99,-96.69 -43.76,-147.37 -62.34,-214 -46.21,-106.65 -40.82,-324 7.91,-319.03 9.19,-299.67 136.67,-570.98 14.02,-29.83 3.86,-21.36 26.93,-29.91 21.4,18.01 28.71,88.99 37.34,130.65 33.61,162.3 64.96,280.19 72.8,449.97l83.52 1643.23c6.34,127.8 -45.45,183.12 -59.12,290.57 24.54,27.58 36.25,31.7 59.31,53.41 16.41,15.44 53.32,46.92 60.96,58.78l15.07 0c11.71,-6.68 193.09,-56.17 209.01,-56.76 17.07,-0.63 202.81,49.13 214.11,56.76l15.04 0c40.01,-38.02 80.78,-70.71 121.11,-112.19 -10.88,-101.87 -64.42,-163.78 -59.43,-283.87 13.57,-326.72 37.7,-664.67 50.29,-989.52 8.52,-219.92 24.14,-441.88 33.44,-659.98 6.84,-160.63 39.94,-289.12 72.07,-443.79 5.14,-24.73 10.05,-47.38 14.68,-71.27 6.22,-32.12 3.61,-48.53 26.02,-64.36 24.84,6.57 13.81,6.38 36.18,54.93 9.89,21.46 19.19,43.03 28.67,63.58 20.28,43.98 39.84,86.93 59.65,131.65 30.57,69.02 25.78,79.87 28.85,164.32 1.96,53.64 19.32,326.43 12.18,356.39 -11.34,47.57 -29.42,99.04 -43.52,147.93l-80.37 275.65c2.09,54.43 39.91,5.82 52.78,-12.72l160.14 -222.48c13.54,-18.9 30.3,-38.15 42.15,-56.91 23.23,-36.8 23.07,-111.01 30.15,-160.25 16.39,-114.11 31.28,-224.45 47.18,-335.93 12.15,-85.22 15.09,-71.48 -8.15,-153.72 -14.24,-50.37 -27.6,-98.76 -40.34,-146.03 69.16,-18.6 445.49,-44.27 453.85,-47.86 12.11,-5.2 9.82,-6 18.24,-14.31l768.41 -762.25c38.31,-38.39 166.46,-144.91 184.99,-184.57 23.73,-50.81 43.98,-122.37 65.55,-178.45l263.8 -719.18c18.91,-51.11 46.07,-144.98 69.82,-181.57l0 -16.59c-24.82,-11.69 -47.41,-44.49 -63.31,-64.9l-453.47 -522.71c-55.02,-58.74 -155.49,-95.43 -230.25,-132.76 -108.76,-54.31 -215.1,-105.09 -322.83,-158.85 -98.7,-49.26 -70.99,-37.62 -181.22,-5.6l-561.09 164.57c-114.56,34.16 -113.06,47.2 -190.4,22.19 -174.35,-56.37 -223.44,-88.59 -398.28,-88.59 -78.66,0 -160.47,-4.1 -237.45,-3.51 -80.88,0.62 -162.13,3.52 -244.04,3.51 -106.94,-0.02 -118.97,2.2 -210.12,32.56 -240.99,80.26 -197.41,82.8 -370.41,32.03 -125.32,-36.78 -250.48,-74.43 -377.34,-110.96 -63.81,-18.38 -126.61,-37.31 -188.57,-55.01 -111.93,-31.98 -76.33,-38.54 -175.75,11.02l-490.23 242.21c-30.57,15.26 -45.74,32.79 -63.57,55.02 -17.86,22.28 -36.17,42.46 -54.4,64.45 -10.2,12.3 -21.83,22.53 -31.39,34.47l-254.56 293.17c-30.76,34.02 -135.24,175.14 -171.32,187.7z"/>
   <path class="fil0" d="M1793.24 1419.75l80.06 16.11c15.88,21.66 33.94,70.75 38.81,99.79l-115.39 -0.27 -3.48 -115.63zm-24.12 141.89l183.26 1.83c-6.71,-28.24 -34.39,-105.15 -46.69,-131.27 -13.7,-29.11 -26.76,-23.54 -61.82,-30.72 -27.49,-5.63 -51.85,-12.48 -78.17,-15.64l3.42 175.81z"/>
   <path class="fil0" d="M3358.97 1535.04c2.91,-12.86 24.2,-75.81 29.76,-85.33 14.04,-24.05 60.76,-25.63 89.58,-29.68l-3.81 115.68 -115.54 -0.67zm-39.94 28.17l183.32 -0.57 2.9 -177.94 -132.23 29.79 -53.99 148.72z"/>
  </g>
 </g>
</svg>
